<?xml version="1.0" encoding="iso-8859-1"?>
<!-- Generator: Adobe Illustrator 19.0.0, SVG Export Plug-In . SVG Version: 6.00 Build 0)  -->
<svg version="1.1" id="Capa_1" xmlns="http://www.w3.org/2000/svg" xmlns:xlink="http://www.w3.org/1999/xlink" x="0px" y="0px"
	 viewBox="0 0 469.333 469.333" style="enable-background:new 0 0 469.333 469.333;" xml:space="preserve">
<path style="fill:#303C42;" d="M469.333,288v-21.333c0-5.896-4.771-10.667-10.667-10.667h-85.333v-64H384
	c23.531,0,42.667-19.135,42.667-42.667V42.667C426.667,19.135,407.531,0,384,0H42.667C19.135,0,0,19.135,0,42.667v64
	c0,23.531,19.135,42.667,42.667,42.667h12.26C58.813,175.896,64,218.396,64,256c0,51.882-8.103,99.819-14.025,128h-7.309
	C19.135,384,0,403.135,0,426.667v32c0,5.896,4.771,10.667,10.667,10.667h448c5.896,0,10.667-4.771,10.667-10.667v-32
	c0-23.531-19.135-42.667-42.667-42.667h-7.417C449.486,362.754,469.333,327.678,469.333,288z M352,256H245.333
	c-5.896,0-10.667,4.771-10.667,10.667V288c0,39.678,19.848,74.754,50.083,96h-71.417V149.333h85.333
	c0,23.531,19.135,42.667,42.667,42.667H352V256z"/>
<g>
	<path style="fill:#29B6F6;" d="M74.646,137.031C73.833,131.833,69.365,128,64.104,128H42.667c-11.76,0-21.333-9.573-21.333-21.333
		v-64c0-11.76,9.573-21.333,21.333-21.333H384c11.76,0,21.333,9.573,21.333,21.333v106.667c0,11.76-9.573,21.333-21.333,21.333
		h-42.667c-11.76,0-21.333-9.573-21.333-21.333v-10.667c0-5.896-4.771-10.667-10.667-10.667H202.667
		c-5.896,0-10.667,4.771-10.667,10.667V384H71.759c6.004-29.577,13.574-76.939,13.574-128
		C85.333,212.344,78.635,162.719,74.646,137.031z"/>
	<path style="fill:#29B6F6;" d="M426.667,405.333c11.76,0,21.333,9.573,21.333,21.333V448H21.333v-21.333
		c0-11.76,9.573-21.333,21.333-21.333H426.667z"/>
</g>
<g>
	<circle style="fill:#303C42;" cx="128" cy="288" r="21.333"/>
	<circle style="fill:#303C42;" cx="128" cy="213.333" r="21.333"/>
	<path style="fill:#303C42;" d="M224,106.667c17.646,0,32-14.354,32-32s-14.354-32-32-32H96c-17.646,0-32,14.354-32,32
		s14.354,32,32,32H224z"/>
</g>
<g>
	<path style="fill:#FAFAFA;" d="M234.667,74.667c0,5.885-4.781,10.667-10.667,10.667h-53.333V64H224
		C229.885,64,234.667,68.781,234.667,74.667z"/>
	<path style="fill:#FAFAFA;" d="M85.333,74.667C85.333,68.781,90.115,64,96,64h53.333v21.333H96
		C90.115,85.333,85.333,80.552,85.333,74.667z"/>
</g>
<path style="opacity:0.1;enable-background:new    ;" d="M233.03,80c0.947-1.592,1.637-3.349,1.637-5.333
	C234.667,68.781,229.885,64,224,64h-53.333v10.667H224C227.901,74.667,231.171,76.87,233.03,80z"/>
<path style="opacity:0.1;enable-background:new    ;" d="M96,64c-5.885,0-10.667,4.781-10.667,10.667
	c0,1.984,0.69,3.741,1.637,5.333c1.859-3.13,5.129-5.333,9.03-5.333h53.333V64H96z"/>
<path style="fill:#D81B60;" d="M352,384c-52.938,0-96-43.063-96-96v-10.667h192V288C448,340.938,404.938,384,352,384z"/>
<path style="opacity:0.1;enable-background:new    ;" d="M420.77,277.333c-13.253,37.167-48.44,64-90.103,64
	c-29.214,0-55.096-13.393-72.717-34.043C266.904,351.014,305.668,384,352,384c52.938,0,96-43.063,96-96v-10.667H420.77z"/>
<linearGradient id="SVGID_1_" gradientUnits="userSpaceOnUse" x1="-60.9672" y1="622.087" x2="-52.4747" y2="613.5946" gradientTransform="matrix(21.3333 0 0 -21.3333 1430.1112 13315.2227)">
	<stop  offset="0" style="stop-color:#000000;stop-opacity:0.1"/>
	<stop  offset="1" style="stop-color:#000000;stop-opacity:0"/>
</linearGradient>
<path style="fill:url(#SVGID_1_);" d="M246.979,52.458l-0.021,0.005C252.531,58.225,256,66.036,256,74.667c0,17.646-14.354,32-32,32
	H96c-8.098,0-15.418-3.121-21.06-8.098L192,215.629v-76.962c0-5.896,4.771-10.667,10.667-10.667h106.667
	c5.896,0,10.667,4.771,10.667,10.667v10.667c0,11.76,9.573,21.333,21.333,21.333h23.854L246.979,52.458z"/>
<linearGradient id="SVGID_2_" gradientUnits="userSpaceOnUse" x1="-68.9717" y1="618.444" x2="-43.2196" y2="606.436" gradientTransform="matrix(21.3333 0 0 -21.3333 1430.1112 13315.2227)">
	<stop  offset="0" style="stop-color:#FFFFFF;stop-opacity:0.2"/>
	<stop  offset="1" style="stop-color:#FFFFFF;stop-opacity:0"/>
</linearGradient>
<path style="fill:url(#SVGID_2_);" d="M469.333,288v-21.333c0-5.896-4.771-10.667-10.667-10.667h-85.333v-64H384
	c23.531,0,42.667-19.135,42.667-42.667V42.667C426.667,19.135,407.531,0,384,0H42.667C19.135,0,0,19.135,0,42.667v64
	c0,23.531,19.135,42.667,42.667,42.667h12.26C58.813,175.896,64,218.396,64,256c0,51.882-8.103,99.819-14.025,128h-7.309
	C19.135,384,0,403.135,0,426.667v32c0,5.896,4.771,10.667,10.667,10.667h448c5.896,0,10.667-4.771,10.667-10.667v-32
	c0-23.531-19.135-42.667-42.667-42.667h-7.417C449.486,362.754,469.333,327.678,469.333,288z M352,256H245.333
	c-5.896,0-10.667,4.771-10.667,10.667V288c0,39.678,19.848,74.754,50.083,96h-71.417V149.333h85.333
	c0,23.531,19.135,42.667,42.667,42.667H352V256z"/>
<g>
</g>
<g>
</g>
<g>
</g>
<g>
</g>
<g>
</g>
<g>
</g>
<g>
</g>
<g>
</g>
<g>
</g>
<g>
</g>
<g>
</g>
<g>
</g>
<g>
</g>
<g>
</g>
<g>
</g>
</svg>
