<?xml version="1.0" encoding="iso-8859-1"?>
<!-- Generator: Adobe Illustrator 19.0.0, SVG Export Plug-In . SVG Version: 6.00 Build 0)  -->
<svg version="1.1" id="Layer_1" xmlns="http://www.w3.org/2000/svg" xmlns:xlink="http://www.w3.org/1999/xlink" x="0px" y="0px"
	 viewBox="0 0 469.333 469.333" style="enable-background:new 0 0 469.333 469.333;" xml:space="preserve">
<g>
	<g>
		<g>
			<circle style="fill:#ffffff;" cx="128" cy="288" r="21.333"/>
			<circle style="fill:#ffffff;" cx="128" cy="213.333" r="21.333"/>
			<path style="fill:#ffffff;" d="M96,106.667h128c17.646,0,32-14.354,32-32s-14.354-32-32-32H96c-17.646,0-32,14.354-32,32S78.354,106.667,96,106.667z
				 M170.667,64H224c5.885,0,10.667,4.781,10.667,10.667S229.885,85.333,224,85.333h-53.333V64z M96,64h53.333v21.333H96
				c-5.885,0-10.667-4.781-10.667-10.667S90.115,64,96,64z"/>
			<path style="fill:#ffffff;" d="M469.333,288v-21.333c0-5.896-4.771-10.667-10.667-10.667h-85.333v-64H384c23.531,0,42.667-19.135,42.667-42.667V42.667
				C426.667,19.135,407.531,0,384,0H42.667C19.135,0,0,19.135,0,42.667v64c0,23.531,19.135,42.667,42.667,42.667h12.26
				C58.812,175.896,64,218.396,64,256c0,51.882-8.103,99.819-14.025,128h-7.309C19.135,384,0,403.135,0,426.667v32
				c0,5.896,4.771,10.667,10.667,10.667h448c5.896,0,10.667-4.771,10.667-10.667v-32c0-23.531-19.135-42.667-42.667-42.667h-7.417
				C449.486,362.754,469.333,327.678,469.333,288z M42.667,128c-11.76,0-21.333-9.573-21.333-21.333v-64
				c0-11.76,9.573-21.333,21.333-21.333H384c11.76,0,21.333,9.573,21.333,21.333v106.667c0,11.76-9.573,21.333-21.333,21.333
				h-42.667c-11.76,0-21.333-9.573-21.333-21.333v-10.667c0-5.896-4.771-10.667-10.667-10.667H202.667
				c-5.896,0-10.667,4.771-10.667,10.667V384H71.759c6.004-29.577,13.574-76.939,13.574-128c0-43.656-6.698-93.281-10.688-118.969
				C73.833,131.833,69.365,128,64.104,128H42.667z M284.75,384h-71.417V149.333h85.333c0,23.531,19.135,42.667,42.667,42.667H352v64
				H245.333c-5.896,0-10.667,4.771-10.667,10.667V288C234.667,327.678,254.514,362.754,284.75,384z M426.667,405.333
				c11.76,0,21.333,9.573,21.333,21.333V448H21.333v-21.333c0-11.76,9.573-21.333,21.333-21.333H426.667z M352,384
				c-52.938,0-96-43.063-96-96v-10.667h192V288C448,340.938,404.938,384,352,384z"/>
		</g>
	</g>
</g>
<g>
</g>
<g>
</g>
<g>
</g>
<g>
</g>
<g>
</g>
<g>
</g>
<g>
</g>
<g>
</g>
<g>
</g>
<g>
</g>
<g>
</g>
<g>
</g>
<g>
</g>
<g>
</g>
<g>
</g>
</svg>
